<svg width="374" height="374" viewBox="0 0 374 374" fill="none" xmlns="http://www.w3.org/2000/svg">
<g clip-path="url(#clip0_11_10)">
<path d="M374 187C374 290.279 290.279 374 187 374C83.7214 374 0 290.279 0 187C0 83.7214 83.7214 0 187 0C290.279 0 374 83.7214 374 187Z" fill="black"/>
<path d="M291.026 342.416C282.012 348.462 272.442 353.752 262.407 358.169C254.625 361.605 246.57 364.527 238.278 366.878C221.988 371.518 204.788 374 187 374C169.221 374 152.017 371.518 135.722 366.886C130.431 365.38 125.233 363.642 120.139 361.685C119.825 361.568 119.512 361.451 119.198 361.325C116.635 360.332 114.099 359.274 111.593 358.169C101.558 353.744 91.9877 348.462 82.9653 342.407C90.5553 331.91 100.322 323.101 111.593 316.607C119.044 312.318 127.153 309.054 135.722 307.002C137.043 306.68 138.381 306.389 139.725 306.132C142.259 305.636 144.838 305.256 147.446 304.985C148.197 304.905 148.941 304.831 149.703 304.774C152.171 304.568 154.668 304.466 157.196 304.466H216.795C220.097 304.466 223.349 304.643 226.548 304.979C229.156 305.247 231.727 305.636 234.269 306.118C235.285 306.315 236.292 306.526 237.294 306.754C237.622 306.84 237.959 306.905 238.278 306.994C246.856 309.054 254.956 312.318 262.407 316.607C273.678 323.107 283.436 331.918 291.026 342.416Z" fill="#404847"/>
<path d="M97.4063 203.518C97.4063 218.636 86.3608 231.173 71.8998 233.499C70.319 233.756 68.6926 233.89 67.0348 233.89C50.2568 233.89 36.6604 220.293 36.6604 203.515C36.6604 186.737 50.2568 173.144 67.0348 173.144C68.6926 173.144 70.319 173.278 71.8998 173.535C86.3608 175.863 97.4063 188.398 97.4063 203.518Z" fill="#F9C5AC"/>
<path d="M97.4063 203.518C97.4063 218.636 86.3608 231.173 71.8998 233.499C69.2718 223.946 67.868 213.893 67.868 203.518C67.868 193.14 69.2718 183.088 71.8998 173.535C86.3608 175.863 97.4063 188.398 97.4063 203.518Z" fill="#EFB29A"/>
<path d="M77.8891 203.518C77.8891 209.513 73.0298 214.373 67.0348 214.373C61.0398 214.373 56.1776 209.513 56.1776 203.518C56.1776 197.523 61.0398 192.664 67.0348 192.664C73.0298 192.664 77.8891 197.523 77.8891 203.518Z" fill="#EFB29A"/>
<path d="M157.196 304.466C135.75 304.466 121.215 335.459 120.139 361.685C119.825 361.568 119.512 361.451 119.198 361.325C116.635 360.332 114.099 359.274 111.593 358.169C101.558 353.744 91.9877 348.462 82.9653 342.407C90.5553 331.91 100.322 323.101 111.593 316.607C119.044 312.318 127.153 309.054 135.722 307.002C137.043 306.68 138.381 306.389 139.725 306.132C142.259 305.636 144.838 305.256 147.446 304.985C148.197 304.905 148.941 304.831 149.703 304.774C152.171 304.568 154.668 304.466 157.196 304.466Z" fill="#2E3433"/>
<path d="M276.585 203.518C276.585 218.636 287.628 231.173 302.092 233.499C303.672 233.756 305.296 233.89 306.957 233.89C323.735 233.89 337.328 220.293 337.328 203.515C337.328 186.737 323.735 173.144 306.957 173.144C305.296 173.144 303.672 173.278 302.092 173.535C287.628 175.863 276.585 188.398 276.585 203.518Z" fill="#F9C5AC"/>
<path d="M276.585 203.518C276.585 218.636 287.628 231.173 302.092 233.499C304.717 223.946 306.121 213.893 306.121 203.518C306.121 193.14 304.717 183.088 302.092 173.535C287.628 175.863 276.585 188.398 276.585 203.518Z" fill="#EFB29A"/>
<path d="M317.811 203.518C317.811 209.513 312.952 214.373 306.957 214.373C300.962 214.373 296.102 209.513 296.102 203.518C296.102 197.523 300.962 192.664 306.957 192.664C312.952 192.664 317.811 197.523 317.811 203.518Z" fill="#EFB29A"/>
<path d="M234.269 306.118V309.288C234.269 330.135 220.887 348.28 200.967 354.437C196.459 355.841 191.757 356.549 186.991 356.549C160.929 356.549 139.725 335.342 139.725 309.288V306.132C142.259 305.636 144.838 305.256 147.446 304.985C148.197 304.905 148.941 304.831 149.703 304.774C152.171 304.568 154.668 304.466 157.196 304.466H216.795C220.097 304.466 223.349 304.643 226.548 304.979C229.156 305.247 231.727 305.636 234.269 306.118Z" fill="#F9C5AC"/>
<path d="M149.703 304.774C148.941 304.831 148.197 304.905 147.446 304.985C144.838 305.256 142.259 305.636 139.725 306.132V309.288C139.725 310.198 139.756 311.1 139.808 311.996C144.85 307.308 150.708 304.466 157.196 304.466C154.668 304.466 152.171 304.568 149.703 304.774Z" fill="#EFB29A"/>
<path d="M219.657 269.206V309.285C219.657 323.96 209.981 336.361 196.656 340.481C193.603 341.429 190.353 341.939 186.991 341.939C168.955 341.939 154.337 327.321 154.337 309.285V269.206H219.657Z" fill="#EFB29A"/>
<path d="M219.657 306.748V309.285C219.657 323.96 209.981 336.361 196.656 340.481C184.632 336.786 175.589 326.331 173.92 313.539C176.103 313.674 178.297 313.739 180.5 313.739C186.68 313.739 192.735 313.248 198.636 312.281C205.907 311.111 212.932 309.242 219.657 306.748Z" fill="#F9C5AC"/>
<path d="M300 187.374C300 243.608 258.917 290.259 205.133 298.919C199.232 299.889 193.175 300.38 186.997 300.38C124.582 300.38 73.9913 249.789 73.9913 187.374V72.325H300V187.374Z" fill="#F9C5AC"/>
<path d="M206.9 298.622C206.315 298.725 205.724 298.827 205.133 298.922C199.23 299.886 193.175 300.377 186.994 300.377C124.585 300.377 73.9913 249.792 73.9913 187.374V72.325H113.839V187.374C113.839 242.989 154 289.209 206.9 298.622Z" fill="#EFB29A"/>
<path d="M186.997 246.847C177.532 246.847 168.071 244.476 159.445 239.734C157.014 238.398 156.126 235.342 157.462 232.908C158.8 230.474 161.856 229.587 164.29 230.925C178.508 238.741 195.486 238.741 209.702 230.925C212.136 229.587 215.192 230.474 216.53 232.908C217.868 235.342 216.981 238.398 214.547 239.734C205.921 244.476 196.459 246.847 186.997 246.847Z" fill="#DD9F8A"/>
<path d="M199.815 213.074H174.177C171.124 213.074 168.647 210.598 168.647 207.544C168.647 204.488 171.124 202.015 174.177 202.015H199.815C202.871 202.015 205.344 204.488 205.344 207.544C205.344 210.598 202.871 213.074 199.815 213.074Z" fill="#EFB29A"/>
<path d="M205.51 182.004C205.51 194.542 215.674 204.708 228.214 204.708C240.752 204.708 250.916 194.542 250.916 182.004" fill="#EFB29A"/>
<path d="M244.493 182.004C244.493 190.995 237.205 198.285 228.214 198.285C219.221 198.285 211.933 190.995 211.933 182.004C211.933 173.013 219.221 165.725 228.214 165.725C237.205 165.725 244.493 173.013 244.493 182.004Z" fill="#2F373B"/>
<path d="M241.973 179.13C241.973 182.985 238.849 186.107 234.997 186.107C231.145 186.107 228.02 182.985 228.02 179.13C228.02 175.278 231.145 172.157 234.997 172.157C238.849 172.157 241.973 175.278 241.973 179.13Z" fill="white"/>
<path d="M123.075 182.004C123.075 194.542 133.242 204.708 145.78 204.708C158.318 204.708 168.481 194.542 168.481 182.004" fill="#EFB29A"/>
<path d="M162.059 182.004C162.059 190.995 154.771 198.285 145.78 198.285C136.789 198.285 129.498 190.995 129.498 182.004C129.498 173.013 136.789 165.725 145.78 165.725C154.771 165.725 162.059 173.013 162.059 182.004Z" fill="#2F373B"/>
<path d="M149.586 197.834C148.368 198.134 147.09 198.285 145.78 198.285C136.789 198.285 129.498 190.998 129.498 182.004C129.498 173.013 136.789 165.722 145.78 165.722C147.09 165.722 148.368 165.876 149.586 166.176C142.427 167.885 137.117 174.328 137.117 182.004C137.117 189.682 142.427 196.125 149.586 197.834Z" fill="#181E21"/>
<path d="M232.021 197.834C230.8 198.134 229.521 198.285 228.214 198.285C219.223 198.285 211.933 190.998 211.933 182.004C211.933 173.013 219.223 165.722 228.214 165.722C229.521 165.722 230.8 165.876 232.021 166.176C224.862 167.885 219.552 174.328 219.552 182.004C219.552 189.682 224.862 196.125 232.021 197.834Z" fill="#181E21"/>
<path d="M159.539 179.13C159.539 182.985 156.417 186.107 152.565 186.107C148.71 186.107 145.589 182.985 145.589 179.13C145.589 175.278 148.71 172.157 152.565 172.157C156.417 172.157 159.539 175.278 159.539 179.13Z" fill="white"/>
<path d="M198.668 133.248C201.284 127.062 224.131 156.982 232.697 154.665C249.997 149.991 234.6 129.441 234.6 129.441L208.663 107.071L193.908 117.303" fill="#EFB29A"/>
<path d="M113.839 153.952C113.839 144.433 153.53 169.977 166.301 157.205C179.073 144.433 116.564 110.64 116.564 110.64L91.3371 113.497" fill="#EFB29A"/>
<path d="M45.6029 189.676C41.9649 176.753 40.1187 163.334 40.1187 149.789C40.1187 68.7982 106.009 2.90761 187 2.90761C267.991 2.90761 333.881 68.7982 333.881 149.789C333.881 163.134 332.089 176.363 328.557 189.106L314.478 185.202C317.66 173.732 319.272 161.816 319.272 149.789C319.272 76.8533 259.936 17.517 187 17.517C114.064 17.517 54.7281 76.8533 54.7281 149.789C54.7281 161.996 56.3888 174.083 59.6645 185.716L45.6029 189.676Z" fill="#525758"/>
<path d="M321.215 89.4596C334.064 68.7582 294.801 53.0474 294.801 53.0474C294.801 53.0474 313.628 51.9203 307.653 36.6262C301.238 20.2049 252.677 36.6262 252.677 20.2049C252.677 3.7836 227.687 8.78845 187 24.4935C146.313 8.78845 121.323 3.7836 121.323 20.2049C121.323 36.6262 72.3021 20.2049 66.3471 36.6262C60.7545 52.0687 79.1988 53.0474 79.1988 53.0474C79.1988 53.0474 39.9361 68.7582 52.7849 89.4596C65.6338 110.161 76.3483 100.885 70.9953 115.517C65.6338 130.155 52.7849 141.58 62.067 150.856C71.3463 160.141 67.0348 173.144 67.0348 173.144C67.0348 173.144 66.1074 181.559 77.0559 181.559C88.0072 181.559 82.7684 139.44 105.618 131.579C120.082 126.605 140.279 141.388 158.943 150.542C169.754 155.847 180.052 159.256 188.432 155.852C211.28 146.576 192.005 127.298 211.28 127.298C230.557 127.298 242.918 162.449 256.255 158.001C262.207 156.015 257.607 146.656 263.477 143.957C275.164 138.586 286.863 161.602 290.749 173.866C292.21 178.491 293.985 181.559 296.944 181.559C307.893 181.559 306.965 173.144 306.965 173.144C306.965 173.144 302.654 160.141 311.933 150.856C321.215 141.58 308.366 130.155 303.005 115.517C297.652 100.885 308.366 110.161 321.215 89.4596Z" fill="#2F373B"/>
<path d="M268.721 274.69C261.516 274.69 254.697 273.615 248.824 272.188L252.271 257.992C294.998 268.367 307.442 236.775 307.95 235.425L321.666 240.455C321.492 240.932 317.303 252.209 306.132 261.653C294.425 271.552 281.014 274.69 268.721 274.69Z" fill="#525758"/>
<path d="M142.025 48.0511C156.306 62.3295 108.475 67.3287 112.039 85.1738C115.611 103.025 158.943 150.542 158.943 150.542C140.279 141.388 120.082 126.605 105.618 131.579C82.7684 139.44 88.0072 181.559 77.0559 181.559C66.1074 181.559 67.0348 173.144 67.0348 173.144C67.0348 173.144 71.3463 160.141 62.067 150.856C52.7849 141.58 65.6338 130.155 70.9953 115.517C76.3482 100.885 65.6338 110.161 52.7849 89.4596C39.9361 68.7582 79.1988 53.0474 79.1988 53.0474C79.1988 53.0474 60.7545 52.0687 66.3471 36.6262C72.3021 20.2049 121.323 36.6262 121.323 20.2049C121.323 3.7836 146.313 8.78845 187 24.4935C159.017 14.7178 127.752 33.7699 142.025 48.0511Z" fill="#181E21"/>
<path d="M32.4745 240.849L40.5239 239.676C46.9726 238.738 51.4381 232.748 50.4994 226.3L43.46 177.989C42.5213 171.54 36.532 167.075 30.0833 168.014L22.0339 169.186C15.5852 170.125 11.1168 176.114 12.0584 182.563L19.0949 230.874C20.0365 237.322 26.0258 241.791 32.4745 240.849Z" fill="#2F373B"/>
<path d="M71.5774 250.639L52.1344 253.473C42.8665 254.822 34.2578 248.402 32.9082 239.134L22.9384 170.707C21.5888 161.436 28.0089 152.828 37.2767 151.478L56.7169 148.645C65.9876 147.295 74.5963 153.715 75.9459 162.983L85.9157 231.413C87.2653 240.681 80.8452 249.29 71.5774 250.639Z" fill="#525758"/>
<path d="M82.3461 206.928L85.9128 231.413C87.2625 240.681 80.8452 249.29 71.5774 250.639L52.1343 253.473C42.8665 254.822 34.2578 248.405 32.9082 239.134L29.3386 214.649C30.6911 223.917 39.2998 230.337 48.5676 228.988L68.0106 226.154C77.2785 224.805 83.6957 216.196 82.3461 206.928Z" fill="#3A3F41"/>
<path d="M341.526 240.849L333.476 239.676C327.027 238.738 322.562 232.748 323.501 226.3L330.54 177.989C331.479 171.54 337.468 167.075 343.917 168.014L351.966 169.186C358.415 170.125 362.883 176.114 361.942 182.563L354.905 230.874C353.963 237.322 347.974 241.791 341.526 240.849Z" fill="#2F373B"/>
<path d="M302.423 250.639L321.866 253.473C331.133 254.822 339.742 248.402 341.092 239.134L351.062 170.707C352.411 161.436 345.991 152.828 336.723 151.478L317.283 148.645C308.012 147.295 299.404 153.715 298.054 162.983L288.087 231.413C286.735 240.681 293.155 249.29 302.423 250.639Z" fill="#525758"/>
<path d="M291.654 206.928L288.087 231.413C286.738 240.681 293.155 249.29 302.425 250.639L321.869 253.473C331.136 254.822 339.745 248.405 341.095 239.134L344.661 214.649C343.312 223.917 334.703 230.337 325.435 228.988L305.992 226.154C296.722 224.805 290.304 216.196 291.654 206.928Z" fill="#3A3F41"/>
<path d="M265.183 263.662C265.183 273.715 257.031 281.867 246.978 281.867C236.923 281.867 228.771 273.715 228.771 263.662C228.771 253.607 236.923 245.455 246.978 245.455C257.031 245.455 265.183 253.607 265.183 263.662Z" fill="#2F373B"/>
<path d="M252.394 281.048C250.685 281.581 248.867 281.867 246.981 281.867C236.923 281.867 228.771 273.715 228.771 263.662C228.771 253.604 236.923 245.46 246.981 245.46C248.867 245.46 250.685 245.746 252.394 246.276C244.99 248.585 239.611 255.496 239.611 263.662C239.611 271.829 244.99 278.739 252.394 281.048Z" fill="#181E21"/>
</g>
<defs>
<clipPath id="clip0_11_10">
<rect width="374" height="374" fill="white"/>
</clipPath>
</defs>
</svg>
