<svg width="188" height="205" viewBox="0 0 188 205" fill="none" xmlns="http://www.w3.org/2000/svg">
<ellipse cx="93.6167" cy="102.5" rx="93.6167" ry="102.5" fill="url(#paint0_radial_114_107)"/>
<g clip-path="url(#clip0_114_107)">
<path d="M143.328 60.1262L134.395 160.664L94.2395 171.848L54.1945 160.68L45.2705 60.1262H143.328Z" fill="#E44D26"/>
<path d="M94.2998 163.299L126.748 154.262L134.381 68.3479H94.2998V163.299Z" fill="#F16529"/>
<path d="M76.9334 93.0131H94.2995V80.6807H63.5176L63.8112 83.9892L66.8286 117.974H94.2995V105.642H78.0554L76.9334 93.0131ZM79.7001 124.141H67.3771L69.0968 143.504L94.243 150.517L94.2995 150.502V137.671L94.2457 137.685L80.5742 133.976L79.7001 124.141Z" fill="#EBEBEB"/>
<path d="M54.3936 32.8H60.632V38.992H66.3388V32.8H72.5776V51.5507H66.3392V45.2719H60.6323V51.5507H54.3939V32.8H54.3936ZM80.7809 39.0182H75.2897V32.8H92.5151V39.0182H87.0205V51.5507H80.7821V39.0182H80.7817H80.7809ZM95.2488 32.8H101.754L105.755 39.3885L109.752 32.8H116.26V51.5507H110.047V42.2569L105.755 48.9237H105.647L101.353 42.2569V51.5507H95.2488V32.8ZM119.364 32.8H125.605V45.353H134.378V51.5507H119.364V32.8H119.364Z" fill="white"/>
<path d="M94.2572 117.974H109.374L107.948 133.969L94.2568 137.681V150.511L119.423 143.504L119.608 141.421L122.493 108.953L122.792 105.642H94.2572V117.974ZM94.2572 92.983V93.0131H123.909L124.155 90.2413L124.715 83.9892L125.008 80.6807H94.2572V92.9834V92.983Z" fill="white"/>
</g>
<defs>
<radialGradient id="paint0_radial_114_107" cx="0" cy="0" r="1" gradientUnits="userSpaceOnUse" gradientTransform="translate(93.6167 102.5) rotate(90) scale(102.5 93.6167)">
<stop stop-color="#EF6228"/>
<stop offset="1" stop-color="#E44D26" stop-opacity="0"/>
</radialGradient>
<clipPath id="clip0_114_107">
<rect width="98.4" height="139.4" fill="white" transform="translate(45.0996 32.8)"/>
</clipPath>
</defs>
</svg>
