<svg width="188" height="205" viewBox="0 0 188 205" fill="none" xmlns="http://www.w3.org/2000/svg">
<ellipse cx="94.3169" cy="102.5" rx="93.6167" ry="102.5" fill="url(#paint0_radial_114_108)"/>
<g clip-path="url(#clip0_114_108)">
<path d="M138 55H49V151H138V55Z" fill="#F7DF1E"/>
<path d="M108.786 130C110.579 133.158 112.911 135.478 117.036 135.478C120.502 135.478 122.715 133.61 122.715 131.029C122.715 127.936 120.441 126.84 116.627 125.04L114.536 124.073C108.501 121.299 104.492 117.825 104.492 110.48C104.492 103.715 109.271 98.5642 116.74 98.5642C122.057 98.5642 125.88 100.56 128.635 105.787L122.122 110.298C120.688 107.524 119.141 106.432 116.74 106.432C114.29 106.432 112.737 108.108 112.737 110.298C112.737 113.004 114.291 114.099 117.88 115.776L119.97 116.742C127.076 120.029 131.088 123.379 131.088 130.913C131.088 139.035 125.173 143.485 117.23 143.485C109.463 143.485 104.445 139.492 101.99 134.259L108.786 130ZM79.2424 130.782C80.5562 133.296 81.7513 135.422 84.6247 135.422C87.3724 135.422 89.1058 134.262 89.1058 129.754V99.0793H97.469V129.875C97.469 139.216 92.3918 143.468 84.9807 143.468C78.2846 143.468 74.4067 139.73 72.4346 135.228L79.2424 130.782Z" fill="black"/>
</g>
<defs>
<radialGradient id="paint0_radial_114_108" cx="0" cy="0" r="1" gradientUnits="userSpaceOnUse" gradientTransform="translate(94.3169 102.5) rotate(90) scale(102.5 93.6167)">
<stop stop-color="#F7DF1E" stop-opacity="0.22"/>
<stop offset="0.0001" stop-color="#F7DF1E"/>
<stop offset="1" stop-color="#F7DF1E" stop-opacity="0"/>
</radialGradient>
<clipPath id="clip0_114_108">
<rect x="49" y="55" width="89" height="96" fill="white"/>
</clipPath>
</defs>
</svg>
