<svg width="188" height="205" viewBox="0 0 188 205" fill="none" xmlns="http://www.w3.org/2000/svg">
<ellipse cx="94.0835" cy="102.5" rx="93.6167" ry="102.5" fill="url(#paint0_radial_114_104)" fill-opacity="0.39"/>
<g clip-path="url(#clip0_114_104)">
<path d="M140.414 100.808C136.792 100.827 133.645 101.699 131.009 102.99C130.042 101.073 129.075 99.3659 128.905 98.1137C128.715 96.6529 128.488 95.7612 128.715 94.0157C128.943 92.2703 129.967 89.7849 129.948 89.5952C129.929 89.4055 129.72 88.5138 127.634 88.4948C125.549 88.4758 123.748 88.8932 123.539 89.4434C123.33 89.9936 122.932 91.2458 122.667 92.5359C122.307 94.4331 118.495 101.206 116.315 104.754C115.613 103.369 115.007 102.155 114.874 101.187C114.684 99.7264 114.457 98.8347 114.684 97.0892C114.912 95.3438 115.936 92.8584 115.917 92.6687C115.898 92.479 115.689 91.5873 113.604 91.5683C111.518 91.5494 109.717 91.9667 109.508 92.5169C109.299 93.0671 109.072 94.3572 108.636 95.6094C108.2 96.8616 103.137 108.169 101.81 111.091C101.127 112.59 100.54 113.785 100.123 114.601C100.123 114.601 100.104 114.658 100.047 114.752C99.6864 115.454 99.4779 115.834 99.4779 115.834C99.4779 115.834 99.4779 115.834 99.4779 115.853C99.1934 116.365 98.8901 116.839 98.7384 116.839C98.6246 116.839 98.4161 115.473 98.7763 113.614C99.5347 109.687 101.336 103.578 101.317 103.369C101.317 103.255 101.658 102.193 100.141 101.643C98.6625 101.092 98.1316 102.003 97.9989 102.003C97.8662 102.003 97.7714 102.326 97.7714 102.326C97.7714 102.326 99.421 95.4576 94.6239 95.4576C91.6281 95.4576 87.4947 98.7398 85.4469 101.699C84.1576 102.401 81.4083 103.9 78.4694 105.513C77.3507 106.139 76.1941 106.765 75.1134 107.353C75.0375 107.277 74.9617 107.182 74.8858 107.107C69.0839 100.903 58.3521 96.5201 58.8072 88.1913C58.9778 85.1557 60.0207 77.1874 79.4174 67.5115C95.3823 59.638 108.086 61.8199 110.285 66.6578C113.433 73.5637 103.479 86.3889 86.9828 88.2482C80.6878 88.9502 77.3887 86.5217 76.5544 85.611C75.6822 84.6624 75.5495 84.6055 75.2271 84.7952C74.6962 85.0798 75.0375 85.9336 75.2271 86.4268C75.7201 87.717 77.7489 89.9936 81.1808 91.113C84.2145 92.0995 91.5902 92.6497 100.521 89.1968C110.513 85.3265 118.325 74.5692 116.031 65.5574C113.736 56.4128 98.5677 53.3962 84.2145 58.4997C75.6822 61.5353 66.4294 66.3163 59.7742 72.5392C51.8676 79.9383 50.6162 86.3699 51.1281 89.064C52.9673 98.626 66.145 104.849 71.416 109.459C71.1506 109.611 70.9041 109.744 70.6955 109.858C68.06 111.167 58.0108 116.422 55.508 121.981C52.6639 128.28 55.9631 132.795 58.1436 133.402C64.9125 135.28 71.8711 131.903 75.6063 126.325C79.3416 120.748 78.8865 113.5 77.1611 110.18C77.1422 110.142 77.1232 110.104 77.0853 110.066C77.7679 109.668 78.4694 109.25 79.152 108.852C80.4982 108.055 81.8255 107.315 82.9631 106.708C82.3184 108.473 81.8444 110.578 81.6169 113.614C81.3325 117.181 82.7924 121.81 84.7075 123.631C85.5607 124.428 86.5656 124.447 87.2103 124.447C89.4477 124.447 90.4526 122.588 91.5712 120.387C92.9364 117.693 94.1689 114.563 94.1689 114.563C94.1689 114.563 92.633 123.024 96.8044 123.024C98.3213 123.024 99.8571 121.051 100.54 120.046C100.54 120.065 100.54 120.065 100.54 120.065C100.54 120.065 100.578 120.008 100.653 119.875C100.805 119.628 100.9 119.476 100.9 119.476C100.9 119.476 100.9 119.458 100.9 119.439C101.507 118.376 102.872 115.967 104.901 111.963C107.517 106.803 110.039 100.352 110.039 100.352C110.039 100.352 110.266 101.927 111.044 104.545C111.499 106.082 112.447 107.771 113.205 109.402C112.599 110.256 112.219 110.73 112.219 110.73C112.219 110.73 112.219 110.73 112.238 110.749C111.745 111.394 111.215 112.096 110.627 112.779C108.56 115.246 106.095 118.073 105.754 118.888C105.356 119.856 105.45 120.558 106.209 121.127C106.759 121.544 107.745 121.601 108.75 121.544C110.608 121.412 111.916 120.956 112.561 120.672C113.566 120.311 114.741 119.761 115.841 118.945C117.87 117.446 119.102 115.303 118.988 112.476C118.932 110.92 118.42 109.364 117.794 107.903C117.983 107.638 118.154 107.372 118.344 107.107C121.548 102.42 124.032 97.279 124.032 97.279C124.032 97.279 124.259 98.8537 125.037 101.472C125.416 102.8 126.193 104.242 126.876 105.646C123.861 108.093 122.003 110.939 121.34 112.798C120.145 116.251 121.074 117.807 122.837 118.167C123.634 118.338 124.771 117.959 125.606 117.598C126.667 117.257 127.919 116.669 129.113 115.796C131.142 114.297 133.095 112.21 132.981 109.383C132.925 108.093 132.583 106.822 132.109 105.589C134.669 104.526 137.968 103.938 142.177 104.431C151.203 105.494 152.985 111.129 152.644 113.5C152.302 115.872 150.406 117.162 149.781 117.56C149.155 117.959 148.946 118.092 149.003 118.376C149.079 118.793 149.382 118.774 149.913 118.699C150.653 118.566 154.653 116.782 154.824 112.419C155.109 106.841 149.8 100.751 140.414 100.808ZM70.7903 124.295C67.7945 127.559 63.6232 128.792 61.8219 127.748C59.8879 126.629 60.6464 121.81 64.3247 118.357C66.5621 116.251 69.4441 114.297 71.3592 113.102C71.7952 112.836 72.4399 112.457 73.2173 111.982C73.35 111.907 73.4259 111.869 73.4259 111.869C73.5776 111.774 73.7292 111.679 73.8809 111.584C75.2271 116.517 73.9378 120.861 70.7903 124.295ZM92.5951 109.459C91.5523 112.001 89.3718 118.509 88.0446 118.148C86.9069 117.845 86.2054 112.912 87.817 108.036C88.6323 105.589 90.3578 102.667 91.3627 101.529C92.9933 99.7074 94.7946 99.1003 95.2307 99.8402C95.7805 100.808 93.2398 107.865 92.5951 109.459ZM110.589 118.073C110.153 118.3 109.736 118.452 109.546 118.338C109.413 118.262 109.736 117.959 109.736 117.959C109.736 117.959 111.992 115.53 112.883 114.43C113.395 113.785 114.002 113.026 114.646 112.172C114.646 112.248 114.646 112.343 114.646 112.419C114.646 115.322 111.84 117.276 110.589 118.073ZM124.468 114.904C124.146 114.676 124.203 113.918 125.283 111.546C125.7 110.616 126.686 109.061 128.374 107.562C128.564 108.169 128.696 108.757 128.677 109.307C128.658 112.969 126.042 114.335 124.468 114.904Z" fill="#CD6799"/>
</g>
<defs>
<radialGradient id="paint0_radial_114_104" cx="0" cy="0" r="1" gradientUnits="userSpaceOnUse" gradientTransform="translate(94.0835 102.5) rotate(90) scale(102.5 93.6167)">
<stop stop-color="#CD6799"/>
<stop offset="1" stop-color="#CD6799" stop-opacity="0"/>
</radialGradient>
<clipPath id="clip0_114_104">
<rect width="103.867" height="77.9" fill="white" transform="translate(51.0332 56.0334)"/>
</clipPath>
</defs>
</svg>
