<svg width="1039" height="900" viewBox="0 0 1039 900" fill="none" xmlns="http://www.w3.org/2000/svg">
<g opacity="0.4" filter="url(#filter0_f_27_318)">
<path d="M947.933 485.473L890.011 654.747L817.124 725.465L624.927 704.446L602.873 565.631L465.647 566.903L404.492 406.845L439.771 303.742L739.719 368.976L777.129 469.689L947.933 485.473Z" fill="#CE1C5C"/>
</g>
<g opacity="0.4" filter="url(#filter1_f_27_318)">
<path d="M221.026 267.015L460.555 221.957L583.862 233.17L649.283 361.771L486.052 441.63L553.139 525.68L381.98 639.799L236.085 667.244L174.581 451.067L282.79 379.92L221.026 267.015Z" fill="#DDD26F"/>
</g>
<g opacity="0.4" filter="url(#filter2_f_27_318)">
<path d="M245.848 378.261L369.837 227.495L468.322 174.212L644.112 232.671L609.126 370.17L741.221 396.299L735.137 561.96L659.616 653.79L398.388 531.461L403.242 427.436L245.848 378.261Z" fill="#9DD62C"/>
</g>
<defs>
<filter id="filter0_f_27_318" x="230.491" y="129.742" width="891.441" height="769.723" filterUnits="userSpaceOnUse" color-interpolation-filters="sRGB">
<feFlood flood-opacity="0" result="BackgroundImageFix"/>
<feBlend mode="normal" in="SourceGraphic" in2="BackgroundImageFix" result="shape"/>
<feGaussianBlur stdDeviation="87" result="effect1_foregroundBlur_27_318"/>
</filter>
<filter id="filter1_f_27_318" x="0.581055" y="47.9572" width="822.702" height="793.286" filterUnits="userSpaceOnUse" color-interpolation-filters="sRGB">
<feFlood flood-opacity="0" result="BackgroundImageFix"/>
<feBlend mode="normal" in="SourceGraphic" in2="BackgroundImageFix" result="shape"/>
<feGaussianBlur stdDeviation="87" result="effect1_foregroundBlur_27_318"/>
</filter>
<filter id="filter2_f_27_318" x="71.8477" y="0.211838" width="843.373" height="827.578" filterUnits="userSpaceOnUse" color-interpolation-filters="sRGB">
<feFlood flood-opacity="0" result="BackgroundImageFix"/>
<feBlend mode="normal" in="SourceGraphic" in2="BackgroundImageFix" result="shape"/>
<feGaussianBlur stdDeviation="87" result="effect1_foregroundBlur_27_318"/>
</filter>
</defs>
</svg>
