<svg width="61" height="67" viewBox="0 0 61 67" fill="none" xmlns="http://www.w3.org/2000/svg">
<g clip-path="url(#clip0_145_47)">
<path d="M60.7284 19.8339C60.728 18.7184 60.4836 17.7327 59.9894 16.887C59.5039 16.0549 58.7769 15.3576 57.8018 14.8064C49.7524 10.2754 41.6951 5.75825 33.6483 1.22266C31.479 1.4642e-05 29.3756 0.0448188 27.2223 1.28501C24.0184 3.12937 7.97751 12.101 3.19754 14.8038C1.22901 15.9165 0.271127 17.6191 0.270654 19.8318C0.267578 28.9439 0.270654 38.0559 0.267578 47.168C0.267578 48.259 0.502022 49.2258 0.97446 50.0588C1.46015 50.9158 2.19731 51.6322 3.19494 52.196C7.97514 54.8988 24.0181 63.8697 27.2213 65.7148C29.3756 66.9557 31.479 67 33.649 65.7771C41.6961 61.2413 49.7538 56.7242 57.8044 52.1932C58.802 51.6297 59.5392 50.9128 60.0249 50.0565C60.4966 49.2232 60.7315 48.2567 60.7315 47.1655C60.7315 47.1655 60.7315 28.9462 60.7284 19.8339Z" fill="#A179DC"/>
<path d="M30.5922 33.4111L0.974609 50.0588C1.46029 50.9159 2.19746 51.6323 3.19509 52.196C7.97529 54.8988 24.0183 63.8698 27.2215 65.7148C29.3757 66.9557 31.4791 67.0001 33.6492 65.7772C41.6962 61.2414 49.7539 56.7242 57.8045 52.1933C58.8022 51.6297 59.5393 50.9129 60.025 50.0565L30.5922 33.4111Z" fill="#280068"/>
<path d="M60.7292 19.8339C60.7287 18.7184 60.4843 17.7327 59.9901 16.887L30.5928 33.4113L60.0256 50.0565C60.4973 49.2232 60.7318 48.2567 60.7322 47.1655C60.7322 47.1655 60.7322 28.9462 60.7292 19.8339" fill="#390091"/>
<path d="M48.0302 27.1877V30.2995H51.2178V27.1877H52.8116V30.2995H55.9991V31.8554H52.8116V34.967H55.9991V36.5229H52.8116V39.6347H51.2178V36.5229H48.0302V39.6347H46.4364V36.5229H43.249V34.967H46.4364V31.8554H43.249V30.2995H46.4364V27.1877H48.0302ZM51.2178 31.8552H48.0302V34.967H51.2178V31.8552Z" fill="white"/>
<path d="M30.6573 11.5599C38.9715 11.5599 46.2303 15.9678 50.1183 22.5198L50.0805 22.4568L40.2982 27.9552C38.371 24.7697 34.8381 22.6198 30.7848 22.5755L30.6571 22.5748C24.4766 22.5748 19.466 27.4663 19.466 33.4998C19.464 35.4015 19.9729 37.2705 20.942 38.9202C22.871 42.2077 26.4974 44.425 30.6573 44.425C34.843 44.425 38.49 42.1795 40.4091 38.8569L40.3625 38.9366L50.1299 44.4604C46.2844 50.957 39.125 55.3512 30.9076 55.4387L30.6573 55.4401C22.3169 55.4401 15.0376 51.005 11.1592 44.4183C9.26589 41.2029 8.18262 37.4751 8.18262 33.4998C8.18262 21.3829 18.2446 11.5597 30.6571 11.5597L30.6573 11.5599Z" fill="white"/>
</g>
<defs>
<clipPath id="clip0_145_47">
<rect width="61" height="67" fill="white"/>
</clipPath>
</defs>
</svg>
