<svg width="100" height="141" viewBox="0 0 100 141" fill="none" xmlns="http://www.w3.org/2000/svg">
<g clip-path="url(#clip0_114_78)">
<path d="M49.9397 139.848L9.89474 128.68L0.970703 28.1262H99.0286L90.0953 128.664L49.9397 139.848V139.848Z" fill="#264DE4"/>
<path d="M82.4478 122.262L90.0815 36.3479H50V131.299L82.4478 122.262V122.262Z" fill="#2965F1"/>
<path d="M21.4287 73.6418L22.5288 85.9742H49.9997V73.6418H21.4287ZM19.2178 48.6807L20.3336 61.0131H49.9997V48.6807H19.2178V48.6807ZM49.9997 105.671L49.9459 105.685L36.2744 101.976L35.4003 92.1406H23.0773L24.797 111.504L49.9432 118.517L49.9997 118.502V105.671Z" fill="#EBEBEB"/>
<path d="M24.0488 0.800049H38.9165V7.0464H30.2665V13.2928H38.9172V19.5387H24.0488V0.800049ZM41.8904 0.800049H56.7584V6.23163H48.108V7.31787H56.7584V19.8106H41.8907V14.1068H50.5411V13.0205H41.89V0.800049H41.8904ZM59.7323 0.800049H74.6003V6.23163H65.9499V7.31787H74.6003V19.8106H59.7323V14.1068H68.3826V13.0205H59.7327V0.800049H59.7323Z" fill="white"/>
<path d="M78.4923 73.6418L80.7082 48.6807H49.9574V61.0131H67.2551L66.1381 73.6418H49.9574V85.9742H65.0737L63.6485 101.969L49.957 105.681V118.511L75.1232 111.504L75.3077 109.421L78.1928 76.9534L78.4923 73.6418V73.6418Z" fill="white"/>
</g>
<defs>
<clipPath id="clip0_114_78">
<rect width="98.4" height="139.4" fill="white" transform="translate(0.799805 0.800049)"/>
</clipPath>
</defs>
</svg>
