<svg width="99" height="141" viewBox="0 0 99 141" fill="none" xmlns="http://www.w3.org/2000/svg">
<g clip-path="url(#clip0_114_84)">
<path d="M98.3284 28.1262L89.3952 128.664L49.2395 139.848L9.19454 128.68L0.270508 28.1262H98.3284Z" fill="#E44D26"/>
<path d="M49.2998 131.299L81.7476 122.262L89.3813 36.3479H49.2998V131.299Z" fill="#F16529"/>
<path d="M31.9334 61.0131H49.2995V48.6807H18.5176L18.8112 51.9892L21.8286 85.9742H49.2995V73.6418H33.0554L31.9334 61.0131V61.0131ZM34.7001 92.1406H22.3771L24.0968 111.504L49.243 118.517L49.2995 118.502V105.671L49.2457 105.685L35.5742 101.976L34.7001 92.1406Z" fill="#EBEBEB"/>
<path d="M9.39355 0.800049H15.632V6.99196H21.3388V0.800049H27.5776V19.5507H21.3392V13.2719H15.6323V19.5507H9.39394V0.800049H9.39355ZM35.7809 7.01821H30.2897V0.800049H47.5151V7.01821H42.0205V19.5507H35.7821V7.01821H35.7817H35.7809ZM50.2488 0.800049H56.7536L60.7549 7.38853L64.7524 0.800049H71.2599V19.5507H65.0468V10.2569L60.7549 16.9237H60.6473L56.3527 10.2569V19.5507H50.2488V0.800049ZM74.3645 0.800049H80.6048V13.353H89.3778V19.5507H74.3641V0.800049H74.3645Z" fill="white"/>
<path d="M49.2572 85.9742H64.3735L62.9483 101.969L49.2568 105.681V118.511L74.423 111.504L74.6075 109.421L77.4926 76.9534L77.7921 73.6418H49.2572V85.9742ZM49.2572 60.983V61.0131H78.9091L79.1551 58.2413L79.7147 51.9892L80.008 48.6807H49.2572V60.9834V60.983Z" fill="white"/>
</g>
<defs>
<clipPath id="clip0_114_84">
<rect width="98.4" height="139.4" fill="white" transform="translate(0.0996094 0.800049)"/>
</clipPath>
</defs>
</svg>
