<svg width="46" height="52" viewBox="0 0 46 52" fill="none" xmlns="http://www.w3.org/2000/svg">
<path d="M46 26.0046C46 22.9815 42.1839 20.1165 36.3331 18.3398C37.6832 12.4238 37.0832 7.71705 34.4391 6.21014C33.8296 5.85667 33.117 5.68923 32.3388 5.68923V7.76356C32.7701 7.76356 33.117 7.84728 33.4077 8.00541C34.6828 8.73096 35.236 11.4936 34.8047 15.047C34.7016 15.9213 34.5328 16.8422 34.3265 17.7817C32.4888 17.3352 30.4823 16.9911 28.3726 16.7678C27.1068 15.047 25.7941 13.4842 24.4721 12.1169C27.5287 9.29838 30.3979 7.75426 32.3481 7.75426V5.67993C29.7697 5.67993 26.3942 7.50311 22.9812 10.6658C19.5683 7.52171 16.1928 5.71714 13.6143 5.71714V7.79147C15.5552 7.79147 18.4338 9.32628 21.4904 12.1262C20.1777 13.4935 18.8651 15.047 17.618 16.7678C15.499 16.9911 13.4925 17.3352 11.6547 17.791C11.4391 16.8608 11.2797 15.9585 11.1671 15.0935C10.7265 11.5401 11.2703 8.77747 12.5361 8.04262C12.8174 7.87518 13.183 7.80077 13.6143 7.80077V5.72644C12.8267 5.72644 12.1141 5.89388 11.4953 6.24735C8.86058 7.75426 8.26987 12.4517 9.62943 18.3491C3.79739 20.1351 0 22.9908 0 26.0046C0 29.0277 3.81614 31.8927 9.66694 33.6694C8.31675 39.5854 8.91684 44.2922 11.5609 45.7991C12.1704 46.1526 12.883 46.32 13.6706 46.32C16.2491 46.32 19.6245 44.4968 23.0375 41.3342C26.4505 44.4782 29.8259 46.2828 32.4044 46.2828C33.192 46.2828 33.9046 46.1154 34.5234 45.7619C37.1582 44.255 37.7489 39.5575 36.3893 33.6601C42.2026 31.8834 46 29.0184 46 26.0046ZM33.7921 19.8002C33.4452 21.0002 33.0139 22.2373 32.5263 23.4745C32.1419 22.7303 31.7387 21.9862 31.298 21.242C30.8667 20.4979 30.4073 19.7723 29.9478 19.0654C31.2793 19.2607 32.5638 19.5026 33.7921 19.8002ZM29.4978 29.7068C28.7664 30.9625 28.0163 32.1532 27.2381 33.2601C25.841 33.381 24.4252 33.4461 23 33.4461C21.5842 33.4461 20.1684 33.381 18.7807 33.2694C18.0024 32.1625 17.243 30.9811 16.5116 29.7347C15.799 28.5161 15.1521 27.279 14.5614 26.0325C15.1427 24.7861 15.799 23.5396 16.5022 22.3211C17.2336 21.0653 17.9837 19.8747 18.7619 18.7677C20.159 18.6468 21.5748 18.5817 23 18.5817C24.4158 18.5817 25.8316 18.6468 27.2193 18.7584C27.9976 19.8654 28.757 21.0467 29.4884 22.2932C30.201 23.5117 30.8479 24.7489 31.4386 25.9953C30.8479 27.2418 30.201 28.4882 29.4978 29.7068ZM32.5263 28.4975C33.0326 29.744 33.4639 30.9904 33.8202 32.1997C32.5919 32.4974 31.298 32.7485 29.9572 32.9438C30.4166 32.2276 30.8761 31.4927 31.3074 30.7393C31.7387 29.9951 32.1419 29.2417 32.5263 28.4975ZM23.0188 38.4227C22.1468 37.5297 21.2748 36.5344 20.4121 35.4461C21.256 35.4833 22.1186 35.5112 22.9906 35.5112C23.872 35.5112 24.744 35.4926 25.5972 35.4461C24.7534 36.5344 23.8814 37.5297 23.0188 38.4227ZM16.0428 32.9438C14.7114 32.7485 13.4268 32.5067 12.1985 32.209C12.5455 31.0091 12.9768 29.7719 13.4643 28.5347C13.8488 29.2789 14.2519 30.023 14.6926 30.7672C15.1333 31.5114 15.5834 32.2369 16.0428 32.9438ZM22.9719 13.5866C23.8439 14.4795 24.7159 15.4748 25.5785 16.5632C24.7346 16.526 23.872 16.4981 23 16.4981C22.1186 16.4981 21.2466 16.5167 20.3934 16.5632C21.2373 15.4748 22.1093 14.4795 22.9719 13.5866ZM16.0334 19.0654C15.574 19.7816 15.1146 20.5165 14.6832 21.2699C14.2519 22.0141 13.8488 22.7582 13.4643 23.5024C12.958 22.2559 12.5267 21.0095 12.1704 19.8002C13.3987 19.5119 14.6926 19.2607 16.0334 19.0654ZM7.5479 30.7114C4.2287 29.3068 2.08153 27.465 2.08153 26.0046C2.08153 24.5442 4.2287 22.6931 7.5479 21.2978C8.35426 20.9537 9.23563 20.6467 10.1451 20.3584C10.6796 22.1815 11.3828 24.0791 12.2548 26.0232C11.3922 27.958 10.6983 29.8463 10.1733 31.6602C9.24501 31.3718 8.36364 31.0556 7.5479 30.7114ZM12.5923 44.0038C11.3172 43.2783 10.764 40.5156 11.1953 36.9623C11.2984 36.0879 11.4672 35.167 11.6735 34.2275C13.5112 34.674 15.5177 35.0182 17.6274 35.2414C18.8932 36.9623 20.2059 38.525 21.5279 39.8924C18.4713 42.7109 15.6021 44.255 13.6519 44.255C13.2299 44.2457 12.8736 44.162 12.5923 44.0038ZM34.8329 36.9158C35.2735 40.4691 34.7297 43.2318 33.4639 43.9666C33.1826 44.1341 32.817 44.2085 32.3856 44.2085C30.4448 44.2085 27.5662 42.6737 24.5096 39.8738C25.8223 38.5064 27.1349 36.953 28.382 35.2321C30.501 35.0089 32.5075 34.6647 34.3453 34.2089C34.5609 35.1484 34.7297 36.0507 34.8329 36.9158ZM38.4427 30.7114C37.6364 31.0556 36.755 31.3625 35.8455 31.6509C35.311 29.8277 34.6078 27.9301 33.7358 25.986C34.5984 24.0512 35.2923 22.1629 35.8174 20.3491C36.7456 20.6374 37.627 20.9537 38.4521 21.2978C41.7713 22.7024 43.9185 24.5442 43.9185 26.0046C43.9091 27.465 41.7619 29.3161 38.4427 30.7114Z" fill="#61DAFB"/>
<path d="M22.991 30.2556C25.3575 30.2556 27.276 28.3524 27.276 26.0046C27.276 23.6569 25.3575 21.7537 22.991 21.7537C20.6245 21.7537 18.7061 23.6569 18.7061 26.0046C18.7061 28.3524 20.6245 30.2556 22.991 30.2556Z" fill="#61DAFB"/>
</svg>
