<svg width="64" height="48" viewBox="0 0 64 48" fill="none" xmlns="http://www.w3.org/2000/svg">
<g clip-path="url(#clip0_31_111)">
<path d="M55.0742 27.5886C52.8428 27.6003 50.9034 28.138 49.2794 28.9329C48.6836 27.7522 48.0878 26.7001 47.9826 25.9286C47.8658 25.0284 47.7256 24.479 47.8658 23.4035C48.006 22.328 48.6369 20.7965 48.6252 20.6796C48.6135 20.5627 48.485 20.0133 47.1998 20.0016C45.9147 19.9899 44.8048 20.2471 44.6763 20.5861C44.5478 20.9251 44.3024 21.6967 44.1389 22.4916C43.9169 23.6607 41.5686 27.8341 40.225 30.0201C39.7928 29.1667 39.4189 28.4186 39.3371 27.8224C39.2203 26.9222 39.0801 26.3728 39.2203 25.2973C39.3605 24.2218 39.9914 22.6904 39.9797 22.5735C39.968 22.4566 39.8395 21.9071 38.5543 21.8954C37.2692 21.8837 36.1593 22.1409 36.0308 22.4799C35.9023 22.819 35.7621 23.6139 35.4934 24.3854C35.2247 25.157 32.1053 32.1244 31.2875 33.9247C30.8669 34.8482 30.5047 35.5847 30.2477 36.0873C30.2477 36.0873 30.236 36.1224 30.2009 36.1809C29.979 36.6134 29.8504 36.8472 29.8504 36.8472C29.8504 36.8472 29.8504 36.8472 29.8504 36.8589C29.6752 37.1745 29.4883 37.4668 29.3948 37.4668C29.3247 37.4668 29.1962 36.6251 29.4182 35.4795C29.8855 33.0596 30.9954 29.2953 30.9837 29.1667C30.9837 29.0966 31.194 28.4419 30.2594 28.1029C29.3481 27.7639 29.0209 28.325 28.9392 28.325C28.8574 28.325 28.799 28.5238 28.799 28.5238C28.799 28.5238 29.8154 24.2919 26.8596 24.2919C25.0136 24.2919 22.4667 26.3143 21.205 28.138C20.4105 28.5705 18.7165 29.4941 16.9056 30.4877C16.2163 30.8735 15.5036 31.2593 14.8377 31.6217C14.7909 31.5749 14.7442 31.5165 14.6975 31.4697C11.1224 27.647 4.50981 24.9466 4.7902 19.8146C4.89535 17.9441 5.53792 13.0342 17.4897 7.07224C27.3269 2.22081 35.1546 3.56518 36.5098 6.54618C38.4492 10.8014 32.3156 18.704 22.1513 19.8496C18.2725 20.2822 16.2396 18.7858 15.7256 18.2247C15.1882 17.6402 15.1064 17.6051 14.9078 17.722C14.5806 17.8974 14.7909 18.4234 14.9078 18.7274C15.2115 19.5223 16.4616 20.9251 18.5763 21.6149C20.4456 22.2228 24.9903 22.5618 30.493 20.4342C36.65 18.0494 41.4634 11.421 40.0498 5.86815C38.6361 0.23347 29.2897 -1.62527 20.4456 1.51939C15.1882 3.38983 9.48681 6.33576 5.38604 10.1701C0.514189 14.7293 -0.256895 18.6923 0.058549 20.3523C1.19181 26.2442 9.31156 30.0786 12.5595 32.9193C12.3959 33.0128 12.244 33.0947 12.1155 33.1648C10.4916 33.9714 4.29951 37.2096 2.75734 40.6348C1.00488 44.516 3.03774 47.2983 4.38129 47.6723C8.55216 48.8297 12.8399 46.7488 15.1414 43.3119C17.443 39.875 17.1626 35.4093 16.0994 33.3635C16.0878 33.3401 16.0761 33.3168 16.0527 33.2934C16.4733 33.0479 16.9056 32.7907 17.3262 32.5452C18.1557 32.0542 18.9735 31.5983 19.6745 31.2242C19.2772 32.3114 18.9852 33.609 18.845 35.4795C18.6697 37.6772 19.5693 40.5296 20.7493 41.6519C21.2751 42.1429 21.8943 42.1546 22.2915 42.1546C23.6701 42.1546 24.2893 41.0089 24.9786 39.6529C25.8198 37.9928 26.5792 36.064 26.5792 36.064C26.5792 36.064 25.6328 41.2778 28.2031 41.2778C29.1378 41.2778 30.0841 40.062 30.5047 39.4424C30.5047 39.4541 30.5047 39.4541 30.5047 39.4541C30.5047 39.4541 30.5281 39.4191 30.5748 39.3372C30.6683 39.1852 30.7267 39.0917 30.7267 39.0917C30.7267 39.0917 30.7267 39.08 30.7267 39.0683C31.1005 38.4137 31.9417 36.929 33.1918 34.4624C34.8041 31.2827 36.3579 27.308 36.3579 27.308C36.3579 27.308 36.4981 28.2783 36.9771 29.8915C37.2575 30.8384 37.8417 31.8789 38.309 32.8842C37.9351 33.4103 37.7015 33.7025 37.7015 33.7025C37.7015 33.7025 37.7015 33.7025 37.7132 33.7142C37.4094 34.1117 37.0823 34.5442 36.7201 34.9651C35.4466 36.4848 33.9278 38.2267 33.7175 38.7293C33.4722 39.3255 33.5306 39.7581 33.9979 40.1088C34.3368 40.366 34.9443 40.401 35.5635 40.366C36.7084 40.2841 37.5146 40.0036 37.9118 39.8282C38.531 39.6061 39.2553 39.2671 39.933 38.7644C41.183 37.8409 41.9424 36.5199 41.8723 34.778C41.8373 33.8194 41.5219 32.8608 41.1363 31.9607C41.2531 31.797 41.3583 31.6334 41.4751 31.4697C43.4496 28.5822 44.9801 25.4142 44.9801 25.4142C44.9801 25.4142 45.1202 26.3845 45.5993 27.9977C45.8329 28.816 46.3119 29.7045 46.7325 30.5696C44.8749 32.0776 43.73 33.8311 43.3211 34.9768C42.585 37.1044 43.1575 38.063 44.244 38.2851C44.7347 38.3903 45.4357 38.1565 45.9497 37.9344C46.604 37.724 47.3751 37.3616 48.1111 36.8238C49.3612 35.9003 50.5646 34.6144 50.4945 32.8725C50.4594 32.0776 50.2491 31.2944 49.9571 30.5345C51.5343 29.8798 53.5671 29.5174 56.1608 29.8214C61.7219 30.476 62.8201 33.948 62.6099 35.4093C62.3996 36.8706 61.2312 37.6655 60.8457 37.911C60.4602 38.1565 60.3316 38.2383 60.3667 38.4137C60.4134 38.6709 60.6004 38.6592 60.9275 38.6124C61.3831 38.5306 63.8483 37.4317 63.9534 34.743C64.1287 31.306 60.8574 27.5535 55.0742 27.5886ZM12.1739 42.061C10.328 44.0718 7.75771 44.8316 6.64782 44.1887C5.45614 43.4989 5.92346 40.5296 8.18998 38.402C9.56859 37.1044 11.3444 35.9003 12.5244 35.1638C12.7931 35.0002 13.1903 34.7663 13.6694 34.4741C13.7511 34.4273 13.7979 34.4039 13.7979 34.4039C13.8913 34.3455 13.9848 34.287 14.0783 34.2286C14.9078 37.2681 14.1133 39.9451 12.1739 42.061ZM25.6095 32.9193C24.9669 34.4858 23.6234 38.4955 22.8055 38.2734C22.1045 38.0864 21.6723 35.0469 22.6653 32.0425C23.1677 30.5345 24.2309 28.7342 24.8501 28.0328C25.8548 26.9105 26.9647 26.5364 27.2334 26.9924C27.5722 27.5886 26.0067 31.9373 25.6095 32.9193ZM36.6967 38.2267C36.428 38.3669 36.171 38.4605 36.0542 38.3903C35.9724 38.3436 36.171 38.1565 36.171 38.1565C36.171 38.1565 37.5613 36.6602 38.1104 35.9821C38.4258 35.5847 38.7997 35.1171 39.1969 34.591C39.1969 34.6378 39.1969 34.6962 39.1969 34.743C39.1969 36.5316 37.4678 37.7357 36.6967 38.2267ZM45.2488 36.2744C45.0501 36.1341 45.0852 35.6665 45.7511 34.2052C46.0082 33.6324 46.6157 32.6738 47.6555 31.7503C47.7723 32.1244 47.8541 32.4868 47.8424 32.8258C47.8307 35.082 46.2185 35.9237 45.2488 36.2744Z" fill="#CD6799"/>
</g>
<defs>
<clipPath id="clip0_31_111">
<rect width="64" height="48" fill="white"/>
</clipPath>
</defs>
</svg>
