<svg width="33" height="33" viewBox="0 0 33 33" fill="none" xmlns="http://www.w3.org/2000/svg">
<path d="M18.4389 16.5L24.3514 10.6013C24.6103 10.3423 24.7558 9.99118 24.7558 9.62501C24.7558 9.25885 24.6103 8.90768 24.3514 8.64876C24.0925 8.38984 23.7413 8.24438 23.3752 8.24438C23.009 8.24438 22.6578 8.38984 22.3989 8.64876L16.5002 14.5613L10.6014 8.64876C10.3425 8.38984 9.99133 8.24438 9.62516 8.24438C9.259 8.24438 8.90783 8.38984 8.64891 8.64876C8.38999 8.90768 8.24453 9.25885 8.24453 9.62501C8.24453 9.99118 8.38999 10.3423 8.64891 10.6013L14.5614 16.5L8.64891 22.3988C8.52003 22.5266 8.41774 22.6787 8.34793 22.8462C8.27813 23.0138 8.24219 23.1935 8.24219 23.375C8.24219 23.5565 8.27813 23.7362 8.34793 23.9038C8.41774 24.0714 8.52003 24.2234 8.64891 24.3513C8.77673 24.4801 8.92881 24.5824 9.09637 24.6522C9.26392 24.722 9.44364 24.758 9.62516 24.758C9.80668 24.758 9.9864 24.722 10.154 24.6522C10.3215 24.5824 10.4736 24.4801 10.6014 24.3513L16.5002 18.4388L22.3989 24.3513C22.5267 24.4801 22.6788 24.5824 22.8464 24.6522C23.0139 24.722 23.1936 24.758 23.3752 24.758C23.5567 24.758 23.7364 24.722 23.904 24.6522C24.0715 24.5824 24.2236 24.4801 24.3514 24.3513C24.4803 24.2234 24.5826 24.0714 24.6524 23.9038C24.7222 23.7362 24.7581 23.5565 24.7581 23.375C24.7581 23.1935 24.7222 23.0138 24.6524 22.8462C24.5826 22.6787 24.4803 22.5266 24.3514 22.3988L18.4389 16.5Z" fill="white"/>
</svg>
