<svg width="188" height="205" viewBox="0 0 188 205" fill="none" xmlns="http://www.w3.org/2000/svg">
<ellipse cx="93.8501" cy="102.5" rx="93.6167" ry="102.5" fill="url(#paint0_radial_114_106)"/>
<g clip-path="url(#clip0_114_106)">
<path d="M99.9397 171.848L59.8947 160.68L50.9707 60.1262H149.029L140.095 160.664L99.9397 171.848Z" fill="#264DE4"/>
<path d="M132.448 154.262L140.081 68.3479H100V163.299L132.448 154.262Z" fill="#2965F1"/>
<path d="M71.4287 105.642L72.5288 117.974H99.9997V105.642H71.4287ZM69.2178 80.6807L70.3336 93.0131H99.9997V80.6807H69.2178ZM99.9997 137.671L99.9459 137.685L86.2744 133.976L85.4003 124.141H73.0773L74.797 143.504L99.9432 150.517L99.9997 150.502V137.671Z" fill="#EBEBEB"/>
<path d="M74.0488 32.8H88.9165V39.0464H80.2665V45.2928H88.9172V51.5387H74.0488V32.8ZM91.8904 32.8H106.758V38.2316H98.108V39.3179H106.758V51.8106H91.8907V46.1068H100.541V45.0205H91.89V32.8H91.8904ZM109.732 32.8H124.6V38.2316H115.95V39.3179H124.6V51.8106H109.732V46.1068H118.383V45.0205H109.733V32.8H109.732Z" fill="white"/>
<path d="M128.492 105.642L130.708 80.6807H99.9574V93.0131H117.255L116.138 105.642H99.9574V117.974H115.074L113.648 133.969L99.957 137.681V150.511L125.123 143.504L125.308 141.421L128.193 108.953L128.492 105.642Z" fill="white"/>
</g>
<defs>
<radialGradient id="paint0_radial_114_106" cx="0" cy="0" r="1" gradientUnits="userSpaceOnUse" gradientTransform="translate(93.8501 102.5) rotate(90) scale(102.5 93.6167)">
<stop stop-color="#264DE4"/>
<stop offset="1" stop-color="#2965F1" stop-opacity="0"/>
</radialGradient>
<clipPath id="clip0_114_106">
<rect width="98.4" height="139.4" fill="white" transform="translate(50.7998 32.8)"/>
</clipPath>
</defs>
</svg>
