<svg id="eckqBpsK8gS1" xmlns="http://www.w3.org/2000/svg" xmlns:xlink="http://www.w3.org/1999/xlink" viewBox="0 0 45 48" shape-rendering="geometricPrecision" text-rendering="geometricPrecision"><defs><linearGradient id="eckqBpsK8gS4-fill" x1="21.5674" y1="-1.5585" x2="39.8324" y2="17.9632" spreadMethod="pad" gradientUnits="userSpaceOnUse" gradientTransform="translate(0 0)"><stop id="eckqBpsK8gS4-fill-0" offset="0%" stop-color="#fff"/><stop id="eckqBpsK8gS4-fill-1" offset="98.83%" stop-color="rgba(255,255,255,0)"/></linearGradient><linearGradient id="eckqBpsK8gS7-fill" x1="-0.255" y1="34.9164" x2="34.6394" y2="44.2041" spreadMethod="pad" gradientUnits="userSpaceOnUse" gradientTransform="translate(0 0)"><stop id="eckqBpsK8gS7-fill-0" offset="0%" stop-color="#fff"/><stop id="eckqBpsK8gS7-fill-1" offset="76.17%" stop-color="#fff"/></linearGradient></defs><g><path d="M0.9,30.4C0.3,28.3,0,26.2,0,24C0,14.2,6.2,5.2,15.4,1.6l1.2,3.1C8.7,7.8,3.3,15.5,3.3,24c0,1.9.2,3.7.7,5.5l-3.1.9Z" fill="#fff"/><path d="M42.5,14.5C38.9,7.6,31.8,3.3,24.1,3.3c-2.7,0-5.4.5-7.9,1.6L14.9,1.8c2.9-1.2,6-1.8,9.2-1.8c9,0,17.2,5,21.4,12.9l-3,1.6Z" fill="url(#eckqBpsK8gS4-fill)"/><path d="M16.9,19c1.9,0,3.5,1,4.3,2.8l.1.1l3.3-1.1-.1-.2c-1.3-3.1-4.2-5-7.6-5-2.4,0-4.4.8-6,2.4s-2.4,3.6-2.4,5.9.8,4.3,2.4,5.9s3.6,2.4,6,2.4c3.4,0,6.3-1.9,7.6-5l.1-.2-3.3-1.1-.1.1c-.7,1.8-2.3,2.8-4.3,2.8-1.4,0-2.5-.5-3.4-1.4s-1.4-2.1-1.4-3.5.5-2.6,1.4-3.6c.9-.8,2-1.3,3.4-1.3Z" fill="#fff"/><path d="M37.3,16.1L32.7,27.9L28,16.1h-3.8l6.6,16.1L26,43.4l3.3.7l11.5-28h-3.5Z" fill="#fff"/><path d="M26.6,42l-.8,2c-.2.4-.5.7-.9.7-.3,0-.6,0-.8,0-9.6,0-18.1-6.8-20.2-16.1l-3.3.7c1.2,5.2,4.1,10,8.3,13.4C13.2,46.1,18.5,48,24,48c0,0,0,0,0,0c.3,0,.6,0,1,0c1.7-.1,3.3-1.1,3.9-2.7L30,42.7L26.6,42Z" fill="url(#eckqBpsK8gS7-fill)"/></g></svg>
