<svg width="100" height="100" viewBox="0 0 100 100" fill="none" xmlns="http://www.w3.org/2000/svg">
<path d="M14.583 83.3334C12.9163 83.3334 11.458 82.7084 10.208 81.4584C8.95801 80.2084 8.33301 78.7501 8.33301 77.0834V22.9167C8.33301 21.2501 8.95801 19.7917 10.208 18.5417C11.458 17.2917 12.9163 16.6667 14.583 16.6667H85.4163C87.083 16.6667 88.5413 17.2917 89.7913 18.5417C91.0413 19.7917 91.6663 21.2501 91.6663 22.9167V77.0834C91.6663 78.7501 91.0413 80.2084 89.7913 81.4584C88.5413 82.7084 87.083 83.3334 85.4163 83.3334H14.583ZM49.9997 51.8751L85.4163 28.6459V22.9167L49.9997 45.6251L14.583 22.9167V28.6459L49.9997 51.8751Z" fill="white"/>
</svg>
