<svg width="61" height="58" viewBox="0 0 61 58" fill="none" xmlns="http://www.w3.org/2000/svg">
<path d="M30.4987 0.708312C22.681 0.628871 15.1516 3.65662 9.56526 9.12615C3.97893 14.5957 0.792778 22.0594 0.707031 29.8771C0.737154 36.0552 2.72459 42.0649 6.38387 47.0429C10.0431 52.0209 15.186 55.711 21.0737 57.5833C22.5633 57.8541 23.1049 56.9604 23.1049 56.175C23.1049 55.3896 23.1049 53.6562 23.1049 51.2187C14.8174 52.9791 13.057 47.3187 13.057 47.3187C12.5053 45.5418 11.3325 44.0228 9.75286 43.0396C7.04453 41.2521 9.96953 41.2791 9.96953 41.2791C10.9057 41.4043 11.8013 41.7398 12.5893 42.2604C13.3773 42.7811 14.0372 43.4734 14.5195 44.2854C15.36 45.7428 16.7391 46.812 18.36 47.2628C19.9809 47.7136 21.7139 47.51 23.1862 46.6958C23.3376 45.2127 24.0092 43.8311 25.082 42.7958C18.4737 42.0646 11.5404 39.5729 11.5404 28.3875C11.4813 25.4697 12.5594 22.6434 14.5466 20.5062C13.6416 18.0012 13.7484 15.2421 14.8445 12.8146C14.8445 12.8146 17.3633 12.0291 22.9695 15.7937C27.8497 14.4933 32.9852 14.4933 37.8654 15.7937C43.5529 12.0291 45.9904 12.8146 45.9904 12.8146C47.0865 15.2421 47.1933 18.0012 46.2883 20.5062C48.3217 22.6042 49.4582 25.4116 49.457 28.3333C49.457 39.5458 42.4695 42.0104 35.9154 42.7416C36.633 43.4384 37.1874 44.2855 37.5386 45.2221C37.8898 46.1587 38.0292 47.1615 37.9466 48.1583V56.1479C37.9466 56.1479 38.4883 57.8541 39.9779 57.5562C45.8489 55.6723 50.9744 51.9813 54.6223 47.0104C58.2703 42.0394 60.2541 36.0428 60.2904 29.8771C60.2046 22.0594 57.0185 14.5957 51.4321 9.12615C45.8458 3.65662 38.3164 0.628871 30.4987 0.708312" fill="white"/>
</svg>
