<svg width="89" height="96" viewBox="0 0 89 96" fill="none" xmlns="http://www.w3.org/2000/svg">
<g clip-path="url(#clip0_114_66)">
<path d="M89 0H0V96H89V0Z" fill="#F7DF1E"/>
<path d="M59.7861 75.0004C61.5788 78.1577 63.9112 80.4785 68.0363 80.4785C71.5016 80.4785 73.7153 78.6103 73.7153 76.029C73.7153 72.9356 71.4409 71.84 67.6266 70.0404L65.5358 69.0728C59.5008 66.2994 55.4915 62.8252 55.4915 55.4804C55.4915 48.7147 60.2707 43.5642 67.7396 43.5642C73.057 43.5642 76.8798 45.5604 79.6345 50.7871L73.122 55.2975C71.6881 52.5242 70.1412 51.4316 67.7396 51.4316C65.29 51.4316 63.7374 53.1078 63.7374 55.2975C63.7374 58.0038 65.2914 59.0994 68.8797 60.7756L70.9705 61.7417C78.0763 65.0286 82.0884 68.3794 82.0884 75.9132C82.0884 84.0351 76.1734 88.4846 68.2298 88.4846C60.4628 88.4846 55.4449 84.4922 52.9896 79.2594L59.7861 75.0004ZM30.2424 75.7821C31.5562 78.2964 32.7513 80.4221 35.6247 80.4221C38.3724 80.4221 40.1058 79.2625 40.1058 74.7535V44.0793H48.469V74.8754C48.469 84.2164 43.3918 88.4678 35.9807 88.4678C29.2846 88.4678 25.4067 84.7299 23.4346 80.2278L30.2424 75.7821Z" fill="black"/>
</g>
<defs>
<clipPath id="clip0_114_66">
<rect width="89" height="96" fill="white"/>
</clipPath>
</defs>
</svg>
