<svg width="63" height="63" viewBox="0 0 63 63" fill="none" xmlns="http://www.w3.org/2000/svg">
<path d="M9.68878 16.5165C13.3717 12.5239 18.9445 10.5 26.2499 10.5H28.8749V17.8999L26.7644 18.3225C23.1682 19.0417 20.6665 20.4566 19.3278 22.533C18.6292 23.6516 18.2331 24.9324 18.178 26.25H26.2499C26.9461 26.25 27.6138 26.5266 28.1061 27.0188C28.5983 27.5111 28.8749 28.1788 28.8749 28.875V47.25C28.8749 50.1454 26.5203 52.5 23.6249 52.5H7.8749C7.17871 52.5 6.51103 52.2234 6.01875 51.7312C5.52647 51.2389 5.2499 50.5712 5.2499 49.875V36.75L5.25778 29.0876C5.23415 28.7963 4.7354 21.8925 9.68878 16.5165ZM52.4999 52.5H36.7499C36.0537 52.5 35.386 52.2234 34.8937 51.7312C34.4015 51.2389 34.1249 50.5712 34.1249 49.875V36.75L34.1328 29.0876C34.1092 28.7963 33.6104 21.8925 38.5638 16.5165C42.2467 12.5239 47.8195 10.5 55.1249 10.5H57.7499V17.8999L55.6394 18.3225C52.0432 19.0417 49.5415 20.4566 48.2028 22.533C47.5042 23.6516 47.1081 24.9324 47.053 26.25H55.1249C55.8211 26.25 56.4888 26.5266 56.9811 27.0188C57.4733 27.5111 57.7499 28.1788 57.7499 28.875V47.25C57.7499 50.1454 55.3953 52.5 52.4999 52.5Z" fill="#00A3FF"/>
</svg>
