<svg width="76" height="76" viewBox="0 0 76 76" fill="none" xmlns="http://www.w3.org/2000/svg">
<path d="M51.124 22.9994C47.9305 22.9885 44.7661 23.6073 41.812 24.8206C38.8579 26.0338 36.172 27.8177 33.9081 30.07C31.6441 32.3224 29.8465 34.9991 28.618 37.9469C27.3896 40.8947 26.7545 44.0559 26.749 47.2494V71.7494C26.749 72.744 27.1441 73.6978 27.8474 74.4011C28.5506 75.1043 29.5045 75.4994 30.499 75.4994H39.249C40.2436 75.4994 41.1974 75.1043 41.9007 74.4011C42.6039 73.6978 42.999 72.744 42.999 71.7494V47.2494C42.9982 46.1136 43.2368 44.9903 43.6992 43.9529C44.1615 42.9154 44.8374 41.9871 45.6826 41.2283C46.5279 40.4696 47.5235 39.8975 48.6047 39.5493C49.6858 39.2012 50.8282 39.0848 51.9574 39.2077C53.9824 39.4628 55.8434 40.4522 57.1874 41.9882C58.5314 43.5242 59.265 45.5001 59.249 47.5411V71.7494C59.249 72.744 59.6441 73.6978 60.3474 74.4011C61.0506 75.1043 62.0045 75.4994 62.999 75.4994H71.749C72.7436 75.4994 73.6974 75.1043 74.4007 74.4011C75.1039 73.6978 75.499 72.744 75.499 71.7494V47.2494C75.4936 44.0559 74.8584 40.8947 73.63 37.9469C72.4016 34.9991 70.604 32.3224 68.34 30.07C66.076 27.8177 63.3901 26.0338 60.436 24.8206C57.4819 23.6073 54.3175 22.9885 51.124 22.9994Z" fill="white"/>
<path d="M15.5 26.75H4.25C2.17893 26.75 0.5 28.4289 0.5 30.5V71.75C0.5 73.8211 2.17893 75.5 4.25 75.5H15.5C17.5711 75.5 19.25 73.8211 19.25 71.75V30.5C19.25 28.4289 17.5711 26.75 15.5 26.75Z" fill="white"/>
<path d="M9.875 19.2498C15.0527 19.2498 19.25 15.0524 19.25 9.87476C19.25 4.69709 15.0527 0.499756 9.875 0.499756C4.69733 0.499756 0.5 4.69709 0.5 9.87476C0.5 15.0524 4.69733 19.2498 9.875 19.2498Z" fill="white"/>
</svg>
