<svg width="189" height="205" viewBox="0 0 189 205" fill="none" xmlns="http://www.w3.org/2000/svg">
<ellipse cx="94.5503" cy="102.5" rx="93.6167" ry="102.5" fill="url(#paint0_radial_114_105)" fill-opacity="0.59"/>
<g clip-path="url(#clip0_114_105)">
<path d="M147.167 101.827C147.167 94.9149 138.437 88.364 125.052 84.3016C128.141 70.7744 126.768 60.0122 120.719 56.5666C119.325 55.7584 117.695 55.3755 115.914 55.3755V60.1185C116.901 60.1185 117.695 60.31 118.36 60.6715C121.277 62.3305 122.542 68.6475 121.556 76.7723C121.32 78.7716 120.934 80.8773 120.462 83.0255C116.258 82.0045 111.667 81.2176 106.841 80.7071C103.945 76.7723 100.942 73.1991 97.9179 70.0725C104.911 63.628 111.474 60.0973 115.936 60.0973V55.3542C110.037 55.3542 102.315 59.523 94.5074 66.7545C86.6996 59.5655 78.9776 55.4393 73.0789 55.4393V60.1824C77.519 60.1824 84.1041 63.6918 91.0968 70.0938C88.0938 73.2204 85.0908 76.7723 82.238 80.7071C77.3903 81.2176 72.8 82.0045 68.5959 83.0467C68.1025 80.9198 67.7379 78.8567 67.4805 76.8787C66.4723 68.7538 67.7164 62.4369 70.6121 60.7566C71.2556 60.3738 72.0922 60.2036 73.0789 60.2036V55.4606C71.2771 55.4606 69.6469 55.8434 68.2312 56.6517C62.2038 60.0973 60.8524 70.8382 63.9627 84.3229C50.6208 88.4066 41.9336 94.9362 41.9336 101.827C41.9336 108.74 50.6637 115.291 64.0485 119.353C60.9597 132.88 62.3325 143.643 68.3814 147.088C69.7756 147.896 71.4058 148.279 73.2076 148.279C79.1063 148.279 86.8283 144.111 94.6361 136.879C102.444 144.068 110.166 148.194 116.065 148.194C117.866 148.194 119.497 147.811 120.912 147.003C126.94 143.558 128.291 132.817 125.181 119.332C138.48 115.27 147.167 108.719 147.167 101.827ZM119.239 87.6409C118.445 90.3846 117.459 93.2134 116.343 96.0422C115.464 94.3407 114.542 92.6391 113.533 90.9376C112.547 89.2361 111.496 87.5771 110.445 85.9606C113.491 86.4073 116.429 86.9603 119.239 87.6409ZM109.415 110.293C107.742 113.164 106.026 115.886 104.246 118.417C101.05 118.694 97.8106 118.843 94.5503 118.843C91.3113 118.843 88.0724 118.694 84.8978 118.439C83.1175 115.908 81.38 113.206 79.7069 110.356C78.0767 107.57 76.5967 104.741 75.2453 101.891C76.5752 99.0412 78.0767 96.1911 79.6855 93.4048C81.3586 90.5335 83.0745 87.811 84.8549 85.28C88.0509 85.0035 91.2899 84.8546 94.5503 84.8546C97.7892 84.8546 101.028 85.0035 104.203 85.2587C105.983 87.7898 107.721 90.4909 109.394 93.341C111.024 96.1273 112.504 98.9561 113.855 101.806C112.504 104.656 111.024 107.506 109.415 110.293ZM116.343 107.528C117.502 110.378 118.488 113.228 119.303 115.993C116.494 116.673 113.533 117.248 110.466 117.694C111.517 116.057 112.568 114.376 113.555 112.653C114.542 110.952 115.464 109.229 116.343 107.528ZM94.5932 130.222C92.5983 128.18 90.6035 125.904 88.6301 123.416C90.5606 123.501 92.534 123.565 94.5288 123.565C96.5451 123.565 98.5399 123.522 100.492 123.416C98.5614 125.904 96.5666 128.18 94.5932 130.222ZM78.6344 117.694C75.5885 117.248 72.6499 116.695 69.8399 116.014C70.6336 113.27 71.6203 110.441 72.7357 107.613C73.6151 109.314 74.5375 111.016 75.5456 112.717C76.5538 114.419 77.5834 116.078 78.6344 117.694ZM94.4859 73.4331C96.4808 75.4749 98.4756 77.7507 100.449 80.2392C98.5185 80.1541 96.5451 80.0903 94.5503 80.0903C92.534 80.0903 90.5391 80.1329 88.5872 80.2392C90.5177 77.7507 92.5125 75.4749 94.4859 73.4331ZM78.613 85.9606C77.5619 87.5983 76.5109 89.2786 75.5242 91.0014C74.5375 92.7029 73.6151 94.4045 72.7357 96.106C71.5774 93.2559 70.5907 90.4059 69.7756 87.6409C72.5855 86.9815 75.5456 86.4073 78.613 85.9606ZM59.2008 112.59C51.6075 109.378 46.6955 105.167 46.6955 101.827C46.6955 98.4882 51.6075 94.2556 59.2008 91.0652C61.0455 90.2783 63.0618 89.5764 65.1424 88.917C66.3651 93.0858 67.9738 97.4247 69.9686 101.87C67.9953 106.294 66.408 110.612 65.2068 114.759C63.0832 114.1 61.0669 113.377 59.2008 112.59ZM70.7408 142.983C67.8237 141.324 66.5581 135.007 67.5448 126.883C67.7808 124.883 68.1669 122.778 68.6388 120.629C72.8429 121.65 77.4332 122.437 82.2595 122.948C85.1552 126.883 88.1582 130.456 91.1826 133.582C84.1899 140.027 77.6263 143.558 73.1647 143.558C72.1994 143.536 71.3843 143.345 70.7408 142.983ZM121.62 126.776C122.628 134.901 121.384 141.218 118.488 142.898C117.845 143.281 117.008 143.451 116.022 143.451C111.581 143.451 104.996 139.942 98.0037 133.54C101.007 130.413 104.01 126.861 106.863 122.926C111.71 122.416 116.3 121.629 120.505 120.587C120.998 122.735 121.384 124.798 121.62 126.776ZM129.878 112.59C128.034 113.377 126.017 114.078 123.937 114.738C122.714 110.569 121.105 106.23 119.11 101.785C121.084 97.3609 122.671 93.0432 123.872 88.8958C125.996 89.5551 128.012 90.2783 129.9 91.0652C137.493 94.2769 142.405 98.4882 142.405 101.827C142.384 105.167 137.472 109.399 129.878 112.59Z" fill="#61DAFB"/>
<path d="M94.5302 111.547C99.944 111.547 104.333 107.196 104.333 101.827C104.333 96.4592 99.944 92.1074 94.5302 92.1074C89.1163 92.1074 84.7275 96.4592 84.7275 101.827C84.7275 107.196 89.1163 111.547 94.5302 111.547Z" fill="#61DAFB"/>
</g>
<defs>
<radialGradient id="paint0_radial_114_105" cx="0" cy="0" r="1" gradientUnits="userSpaceOnUse" gradientTransform="translate(94.5503 102.5) rotate(90) scale(102.5 93.6167)">
<stop stop-color="#61DAFB"/>
<stop offset="1" stop-color="#61DAFB" stop-opacity="0"/>
</radialGradient>
<clipPath id="clip0_114_105">
<rect width="105.233" height="118.9" fill="white" transform="translate(41.9336 42.3667)"/>
</clipPath>
</defs>
</svg>
